<?xml version="1.0" encoding="UTF-8" standalone="no"?>
<!-- Created with Inkscape (http://www.inkscape.org/) -->

<svg
   width="31.999998"
   height="31.999998"
   viewBox="0 0 8.466666 8.466666"
   version="1.1"
   id="svg1"
   sodipodi:docname="Unnamed document 1"
   inkscape:export-filename="favicon.svg"
   inkscape:export-xdpi="96"
   inkscape:export-ydpi="96"
   xmlns:inkscape="http://www.inkscape.org/namespaces/inkscape"
   xmlns:sodipodi="http://sodipodi.sourceforge.net/DTD/sodipodi-0.dtd"
   xmlns="http://www.w3.org/2000/svg"
   xmlns:svg="http://www.w3.org/2000/svg">
  <sodipodi:namedview
     id="namedview1"
     pagecolor="#505050"
     bordercolor="#ffffff"
     borderopacity="1"
     inkscape:showpageshadow="0"
     inkscape:pageopacity="0"
     inkscape:pagecheckerboard="1"
     inkscape:deskcolor="#505050"
     inkscape:document-units="mm"
     inkscape:zoom="7.375"
     inkscape:cx="15.932203"
     inkscape:cy="16"
     inkscape:window-width="2016"
     inkscape:window-height="1188"
     inkscape:window-x="20"
     inkscape:window-y="44"
     inkscape:window-maximized="0"
     inkscape:current-layer="layer1" />
  <defs
     id="defs1" />
  <g
     inkscape:label="Layer 1"
     inkscape:groupmode="layer"
     id="layer1">
    <g
       id="g2"
       transform="translate(0,0.36811593)">
      <g
         id="g1"
         transform="matrix(0.52173909,0,0,0.52173909,-4.5968624,-5.4081377)"
         style="fill:#2e0511;fill-opacity:1;stroke:#df1b4f;stroke-opacity:1">
        <path
           id="path32"
           d="M 22.921767,10.718376 H 10.927322 c -0.9701392,0 -1.7638892,0.79375 -1.7638892,1.763889 v 1.690511 H 24.685656 v -1.690511 c 0,-0.970139 -0.79375,-1.763889 -1.763889,-1.763889 z"
           style="fill:#2e0511;fill-opacity:1;stroke:#df1b4f;stroke-width:0.705556;stroke-linecap:round;stroke-linejoin:round;stroke-miterlimit:10;stroke-dasharray:none;stroke-opacity:1" />
        <path
           id="path33"
           d="M 24.685656,14.172776 H 9.1634328 v 8.892823 c 0,0.970139 0.79375,1.763889 1.7638892,1.763889 h 11.994445 c 0.970139,0 1.763889,-0.79375 1.763889,-1.763889 z"
           style="fill:#2e0511;fill-opacity:1;stroke:#df1b4f;stroke-width:0.705556;stroke-linecap:round;stroke-linejoin:round;stroke-miterlimit:10;stroke-dasharray:none;stroke-opacity:1" />
        <path
           id="path34"
           d="m 11.926953,12.618437 c -0.09521,0 -0.17279,-0.07761 -0.17279,-0.172861 0,-0.09525 0.07758,-0.172861 0.17279,-0.172861 0.09507,0 0.172544,0.07761 0.172544,0.172861 0,0.09525 -0.07747,0.172861 -0.172544,0.172861 z m 1.55441,0 c -0.09536,0 -0.172791,-0.07761 -0.172791,-0.172861 0,-0.09525 0.07744,-0.172861 0.172791,-0.172861 0.09511,0 0.172543,0.07761 0.172543,0.172861 0,0.09525 -0.07743,0.172861 -0.172543,0.172861 z m 1.554444,0 c -0.09521,0 -0.17279,-0.07761 -0.17279,-0.172861 0,-0.09525 0.07758,-0.172861 0.17279,-0.172861 0.09507,0 0.172544,0.07761 0.172544,0.172861 0,0.09525 -0.07747,0.172861 -0.172544,0.172861 z"
           style="fill:#2e0511;fill-opacity:1;stroke:#df1b4f;stroke-width:0.705556;stroke-linecap:round;stroke-linejoin:round;stroke-miterlimit:10;stroke-dasharray:none;stroke-opacity:1" />
      </g>
    </g>
    <path
       id="path35"
       d="M 2.6536071,3.5118128 H 1.5124162 c -0.00215,0 -0.00379,-0.00172 -0.00379,-0.00381 0,-0.00209 0.00164,-0.00381 0.00379,-0.00381 h 1.1411909 c 0.00215,0 0.00379,0.00171 0.00379,0.00381 0,0.00209 -0.00164,0.00381 -0.00379,0.00381 z"
       style="fill:none;stroke:#df1b4f;stroke-width:0.380397;stroke-linecap:round;stroke-linejoin:round;stroke-miterlimit:10;stroke-dasharray:none;stroke-opacity:1" />
    <path
       id="path36"
       d="M 4.7457905,4.2726067 H 2.0830117 c -0.00215,0 -0.00379,-0.00171 -0.00379,-0.00381 0,-0.00209 0.00163,-0.00381 0.00379,-0.00381 h 2.6627788 c 0.0022,0 0.0038,0.00172 0.0038,0.00381 0,0.00209 -0.0017,0.00381 -0.0038,0.00381 z"
       style="fill:none;stroke:#df1b4f;stroke-width:0.380397;stroke-linecap:round;stroke-linejoin:round;stroke-miterlimit:10;stroke-dasharray:none;stroke-opacity:1" />
    <path
       id="path37"
       d="M 5.8869815,5.0334007 H 2.6536071 c -0.00215,0 -0.00379,-0.00172 -0.00379,-0.00381 0,-0.00209 0.00164,-0.00381 0.00379,-0.00381 h 3.2333744 c 0.0022,0 0.0038,0.00171 0.0038,0.00381 0,0.00209 -0.0016,0.00381 -0.0038,0.00381 z"
       style="fill:none;stroke:#df1b4f;stroke-width:0.380397;stroke-linecap:round;stroke-linejoin:round;stroke-miterlimit:10;stroke-dasharray:none;stroke-opacity:1" />
    <path
       id="path38"
       d="M 3.9849969,5.7940045 H 2.0830117 c -0.00215,0 -0.00379,-0.00152 -0.00379,-0.00361 0,-0.00209 0.00163,-0.00381 0.00379,-0.00381 h 1.9019852 c 0.00218,0 0.00375,0.00172 0.00375,0.00381 0,0.00209 -0.00165,0.00361 -0.00375,0.00361 z"
       style="fill:none;stroke:#df1b4f;stroke-width:0.380397;stroke-linecap:round;stroke-linejoin:round;stroke-miterlimit:10;stroke-dasharray:none;stroke-opacity:1" />
    <path
       id="path39"
       d="M 3.0340043,6.5547984 H 1.5124162 c -0.00215,0 -0.00379,-0.00152 -0.00379,-0.00361 0,-0.00209 0.00164,-0.00381 0.00379,-0.00381 h 1.5215881 c 0.00216,0 0.00377,0.00171 0.00377,0.00381 0,0.00209 -0.00162,0.00361 -0.00377,0.00361 z"
       style="fill:none;stroke:#df1b4f;stroke-width:0.380397;stroke-linecap:round;stroke-linejoin:round;stroke-miterlimit:10;stroke-dasharray:none;stroke-opacity:1" />
  </g>
</svg>
